HIERARCHY
ROOT Hips
{
     OFFSET 1.88212 96.90440 -13.34250
     CHANNELS 6 Xposition Yposition Zposition Zrotation Xrotation Yrotation
     JOINT Spine
     {
          OFFSET 0.00000 11.89050 0.00000
          CHANNELS 3 Zrotation Xrotation Yrotation
          JOINT Spine1
          {
               OFFSET -0.00000 25.65740 0.12766
               CHANNELS 3 Zrotation Xrotation Yrotation
               JOINT HEad
               {
                    OFFSET 0.00000 8.73416 0.01134
                    CHANNELS 3 Zrotation Xrotation Yrotation
                    End Site
                    {
                         OFFSET -0.29000 12.77420 2.51395
                    }
               }
               JOINT LeftShoulder1
               {
                    OFFSET 8.99000 -0.36225 -0.22000
                    CHANNELS 3 Zrotation Xrotation Yrotation
                    JOINT LeftArm
                    {
                         OFFSET 10.28270 -0.00338 0.32212
                         CHANNELS 3 Zrotation Xrotation Yrotation
                         JOINT LeftForeArm
                         {
                              OFFSET 32.76690 0.09914 -1.42434
                              CHANNELS 3 Zrotation Xrotation Yrotation
                              JOINT LeftHand
                              {
                                   OFFSET 27.56430 0.08536 1.02216
                                   CHANNELS 3 Zrotation Xrotation Yrotation
                                   End Site
                                   {
                                        OFFSET 16.74430 -0.60000 1.50291
                                   }
                              }
                         }
                    }
               }
               JOINT RightShoulder
               {
                    OFFSET -8.99000 -0.36225 -0.22000
                    CHANNELS 3 Zrotation Xrotation Yrotation
                    JOINT RightArm
                    {
                         OFFSET -10.28270 -0.00338 0.32212
                         CHANNELS 3 Zrotation Xrotation Yrotation
                         JOINT RightForeArm
                         {
                              OFFSET -32.89710 0.09914 -1.42434
                              CHANNELS 3 Zrotation Xrotation Yrotation
                              JOINT RightHand
                              {
                                   OFFSET -27.49210 0.08536 1.02216
                                   CHANNELS 3 Zrotation Xrotation Yrotation
                                   End Site
                                   {
                                        OFFSET -16.63120 -0.60000 1.50291
                                   }
                              }
                         }
                    }
               }
          }
     }
     JOINT LeftUpLeg
     {
          OFFSET 8.94580 -8.66707 0.10165
          CHANNELS 3 Zrotation Xrotation Yrotation
          JOINT LeftLeg
          {
               OFFSET 0.00000 -44.42270 1.37270
               CHANNELS 3 Zrotation Xrotation Yrotation
               JOINT LeftFoot
               {
                    OFFSET -0.25355 -42.09240 -1.46059
                    CHANNELS 3 Zrotation Xrotation Yrotation
                    JOINT LeftToes
                    {
                         OFFSET -0.04000 -4.41509 8.49910
                         CHANNELS 3 Zrotation Xrotation Yrotation
                         End Site
                         {
                              OFFSET 0.08000 -0.04745 9.77979
                         }
                    }
               }
          }
     }
     JOINT RightUpLeg
     {
          OFFSET -8.94580 -8.66707 0.10165
          CHANNELS 3 Zrotation Xrotation Yrotation
          JOINT RightLeg
          {
               OFFSET 0.00000 -44.42270 1.37270
               CHANNELS 3 Zrotation Xrotation Yrotation
               JOINT RightFoot
               {
                    OFFSET 0.25355 -42.09240 -1.46059
                    CHANNELS 3 Zrotation Xrotation Yrotation
                    JOINT RightToes
                    {
                         OFFSET 0.04000 -4.41509 8.49910
                         CHANNELS 3 Zrotation Xrotation Yrotation
                         End Site
                         {
                              OFFSET -0.08000 -0.13745 9.77979
                         }
                    }
               }
          }
     }
}
MOTION
Frames: 12
Frame Time: 0.01667
-92.19319 88.82603 12.40234 2.10807 5.30949 124.98885 6.49564 16.39633 6.61140 0.00313 -0.00072 -0.00944 -35.80383 13.40858 30.97859 8.75751 -1.98094 2.67134 21.73004 -78.65647 42.38470 -39.19234 46.46505 -105.48650 4.04701 9.01330 -0.04472 29.52654 1.37981 8.59818 40.45714 -14.47587 62.93294 24.52523 37.42802 102.79388 -5.37264 5.01798 3.67657 26.69556 -27.94024 14.02109 -4.53446 26.54606 4.32357 37.15155 0.03511 -0.02552 -57.13607 -4.69640 -8.66603 -27.02957 6.65463 2.35879 -2.21938 26.92610 22.74537 12.08411 -0.10138 0.02086 -9.54773 -42.54403 -26.68050 
-92.32286 88.29634 14.92431 1.79851 4.64939 125.66847 6.76762 16.04471 6.92180 0.00211 -0.00040 -0.01091 -35.92157 12.33093 31.02223 8.23795 -1.29714 1.86191 25.41750 -79.25506 47.19947 -39.99970 47.10728 -105.12587 4.05954 8.89344 -1.08325 28.75411 1.72563 7.63543 42.10836 -13.64240 64.57146 24.20473 37.35701 102.39201 -5.41009 7.84255 1.56939 27.13902 -28.93856 12.96250 -2.94508 25.77120 -1.28319 36.85337 0.00401 0.01126 -43.73652 5.05294 -10.58709 -26.60210 10.09768 6.49342 3.01820 21.55822 13.37952 9.05488 -0.16181 0.05909 -10.13298 -44.29862 -21.49196 
-92.35519 87.82683 17.26690 1.66741 4.11396 126.26173 7.10258 15.79594 7.10222 0.00154 0.00047 -0.01220 -36.00505 11.50974 31.27546 7.75199 -0.56395 1.03418 29.44184 -79.92842 52.44456 -40.93307 47.89748 -104.62297 4.45815 8.50382 -0.88513 27.99729 2.13114 6.63902 43.63075 -12.81727 66.00553 23.92664 37.27922 102.04070 -5.71494 6.70796 1.95274 27.08743 -29.55272 11.77084 -1.48388 24.44250 -6.00168 36.37011 -0.00906 0.00390 -51.06429 2.75256 -2.96446 -26.34937 13.01259 10.32919 7.94410 17.05769 5.05621 7.55708 -0.15424 0.02199 -8.31513 -41.91891 -17.99472 
-92.30383 87.42760 19.38763 1.70503 3.70542 126.79912 7.51310 15.61658 7.13638 0.00160 -0.00023 -0.01175 -36.08265 11.00830 31.74351 7.39809 0.05232 0.35224 32.53280 -80.63250 56.76982 -41.99733 48.74644 -103.93784 4.40211 8.63471 -1.73493 27.45568 2.47782 5.77324 44.85447 -11.97879 67.02844 23.66183 37.18369 101.69302 -5.85432 8.42186 0.71788 26.69147 -29.75094 10.50967 -0.03811 22.86176 -9.89762 35.50412 -0.01609 0.01222 -51.31348 4.26624 0.81550 -26.25665 15.42132 13.83852 12.40849 13.04484 -1.68863 4.77243 -0.17870 0.03389 -7.96944 -42.77360 -13.66069 
-92.22062 87.20401 21.36052 1.88197 3.40629 127.28207 7.95752 15.48573 7.05195 -0.00105 0.00027 -0.01123 -36.07589 10.77808 32.37326 6.94646 0.69367 -0.20317 34.78879 -81.50201 59.97740 -43.05075 49.52600 -103.10436 4.55562 8.52566 -1.59779 26.91375 2.90286 5.00044 46.02230 -11.18252 67.80271 23.38840 37.07421 101.37274 -5.94633 7.75975 0.79284 26.14352 -29.54938 9.27591 1.30279 21.21956 -12.90745 34.30575 -0.01840 0.01540 -53.00803 3.94980 6.04910 -25.50124 16.65946 16.30634 15.48629 10.44909 -6.19383 3.42748 -0.14794 0.02465 -8.51684 -42.65294 -11.32604 
-92.10384 87.13739 23.15597 2.16872 3.18741 127.68790 8.40111 15.38123 6.90545 -0.00317 0.00065 -0.00987 -35.98888 10.82468 33.12336 6.42461 1.29324 -0.59031 35.43600 -82.50237 61.28627 -44.01141 50.17886 -102.18527 4.49377 8.79060 -2.03065 26.42225 3.35257 4.41409 47.03550 -10.47684 68.26403 23.09083 36.95916 101.02290 -5.78372 8.86287 -0.11446 25.68082 -29.12454 8.24148 1.86920 20.93113 -13.44731 33.67728 -0.01334 -0.01257 -52.39921 3.21292 7.99289 -24.16683 16.98537 17.73865 17.07077 9.33753 -8.51891 1.63771 -0.13533 0.02616 -8.90826 -43.09558 -10.07909 
-91.96085 87.25440 24.76089 2.53329 3.02846 127.99783 8.80818 15.28597 6.73680 -0.00458 0.00139 -0.00910 -35.52347 12.60071 34.40556 5.87655 1.86553 -0.89926 34.80380 -83.52955 61.06586 -44.76563 50.63193 -101.30999 4.62818 9.10806 -1.89169 25.91298 3.79615 3.92188 47.92667 -9.80683 68.57288 22.77185 36.82064 100.64973 -5.54466 8.69388 -0.06846 25.41339 -28.64138 7.51553 1.90639 21.37252 -11.97772 33.25025 -0.00165 -0.02092 -53.20395 6.28983 23.84537 -22.35088 16.61485 18.17656 17.19119 9.72825 -8.93130 2.59462 -0.14672 0.02002 -10.83810 -42.40816 -10.41553 
-91.79054 87.54805 26.15695 2.94675 2.91173 128.20638 9.15791 15.18783 6.57669 -0.00524 0.00188 -0.00796 -35.12313 14.43941 35.68379 5.32052 2.38328 -1.09028 32.71531 -84.53453 59.18660 -45.34652 50.92226 -100.50742 4.63742 9.47717 -2.04842 25.31419 4.21984 3.57301 48.72310 -9.19875 68.74081 22.42758 36.66361 100.26127 -5.21733 9.37598 -0.56669 25.37022 -28.21213 7.13645 1.45650 22.30795 -8.98951 32.90290 0.00523 -0.02140 -50.25347 5.72311 13.69880 -20.22229 15.79040 17.71434 16.17650 9.49847 -8.41151 3.44136 -0.13626 0.00417 -11.45311 -40.00531 -10.34051 
-91.59222 87.97533 27.33965 3.38843 2.82208 128.32034 9.44749 15.07405 6.43548 -0.00511 0.00189 -0.00709 -34.81113 16.28989 36.94942 4.79935 2.81222 -1.18709 29.20233 -85.41585 55.75240 -45.74894 51.07584 -99.86715 4.74789 9.91145 -1.98610 24.63937 4.55501 3.24858 49.41864 -8.55674 68.85217 22.10286 36.50711 99.88446 -4.93900 9.34243 -0.40222 25.56430 -27.87848 7.10672 0.44138 23.58549 -4.89214 32.66045 0.00876 -0.01787 -48.70102 5.86927 13.12554 -17.90442 14.48855 16.40294 14.66557 13.21334 -6.84678 3.65783 -0.03577 -0.00687 -11.18581 -40.83435 -10.88529 
-91.36259 88.47952 28.31199 3.81021 2.72675 128.37354 9.67775 14.89749 6.31164 -0.00477 0.00233 -0.00566 -34.59490 18.11975 38.18105 4.29904 3.20422 -1.14682 24.52189 -86.23641 51.03168 -46.07193 51.16103 -99.32298 4.76233 10.19820 -1.98147 23.87160 4.89998 3.09712 50.01285 -8.10653 68.91137 21.83187 36.35186 99.49976 -4.64166 9.79212 -0.68524 25.85588 -27.55115 7.32125 0.01783 23.76920 -1.80800 31.33775 0.04773 -0.02889 -46.63421 6.32984 7.34780 -16.07038 13.37670 15.22550 13.13379 16.32241 -5.44717 5.06884 -0.04664 0.00661 -11.38063 -41.16572 -9.97086 
-91.12415 89.01802 29.10726 4.19284 2.61423 128.39130 9.84019 14.65289 6.20318 -0.00513 0.00326 -0.00428 -34.46202 19.87337 39.35928 3.77730 3.58716 -1.01060 -26.26413 -90.00000 0.00000 -46.32133 51.19390 -98.85661 4.82540 10.62475 -1.85122 23.03529 5.26357 3.05447 50.50069 -7.82573 68.99918 21.62863 36.19624 99.11343 -4.41294 9.80870 -0.53071 26.09572 -27.10978 7.66603 -0.02318 23.27764 0.37508 29.26860 0.06111 -0.02500 -45.09523 7.38751 5.04308 -14.66388 12.51057 14.13358 11.44709 17.08267 -4.00885 13.88228 -0.18554 -0.03531 -4.91002 -28.91253 7.63023 
-90.88530 89.54224 29.76883 4.52181 2.47408 128.39458 9.92854 14.32568 6.11130 -0.00547 0.00329 -0.00290 -34.40194 21.53922 40.46952 3.22714 3.87930 -0.78415 -25.94036 -90.00000 0.00000 -46.52630 51.23010 -98.45459 4.85404 10.73296 -1.79707 22.29974 5.57892 3.16588 50.71836 -7.74287 69.02621 21.49383 36.02698 98.71626 -4.21787 10.15051 -0.69014 26.19913 -26.49261 8.05241 0.12800 22.36160 1.80634 26.66026 0.06104 -0.01554 -42.95092 8.87054 2.03915 -13.59709 11.80852 13.07176 9.98813 18.42180 -2.61563 11.41009 -0.01716 -0.01358 -7.49451 -34.61984 0.89403 
